# xmcd
#
# Track frame offsets: 
#        150
#        14021
#        25762
#        42676
#        54187
#        67424
#        82662
#        95465
#        113784
#        125922
#        137632
#
# Disc length: 2086 seconds
#
# Revision: 0
# Processed by: cddbd v1.5.2PL0 Copyright (c) Steve Scherf et al.
# Submitted via: ExactAudioCopy v0.99pb4
#
DISCID=9808240b
DTITLE=Keith Cooper - A Gutiar's Carol
DYEAR=2007
DGENRE=Blues
TTITLE0=Hark the Herald
TTITLE1=Dance of the Sugar Plum
TTITLE2=O Come All Ye Faithful
TTITLE3=The first Noel
TTITLE4=God Rest Ye Merry Gentlemen
TTITLE5=What Child Is This?
TTITLE6=We Three Kings
TTITLE7=Carol of the Birds
TTITLE8=Away in a Manger
TTITLE9=Silent Night
TTITLE10=Hark the Herald (extended remix)
EXTD=
EXTT0=
EXTT1=
EXTT2=
EXTT3=
EXTT4=
EXTT5=
EXTT6=
EXTT7=
EXTT8=
EXTT9=
EXTT10=
PLAYORDER=
